<svg width="155" height="40" viewBox="0 0 155 40" fill="none" xmlns="http://www.w3.org/2000/svg">
<g clip-path="url(#clip0_1835_1990)">
<path d="M54.9531 11.3984V15H52.8984V4.625H56.2344C56.9062 4.625 57.4844 4.70833 57.9688 4.875C58.4531 5.04167 58.8542 5.27344 59.1719 5.57031C59.4896 5.86198 59.724 6.21094 59.875 6.61719C60.026 7.02344 60.1016 7.46875 60.1016 7.95312C60.1016 8.46354 60.0208 8.92969 59.8594 9.35156C59.7031 9.77344 59.4635 10.1354 59.1406 10.4375C58.8229 10.7396 58.4219 10.9766 57.9375 11.1484C57.4531 11.3151 56.8854 11.3984 56.2344 11.3984H54.9531ZM54.9531 9.80469H56.2344C56.8594 9.80469 57.3177 9.64062 57.6094 9.3125C57.901 8.97917 58.0469 8.52604 58.0469 7.95312C58.0469 7.41667 57.8984 6.99219 57.6016 6.67969C57.3047 6.36198 56.849 6.20312 56.2344 6.20312H54.9531V9.80469ZM63.5 11.0078V15H61.4375V4.625H64.5625C65.2552 4.625 65.849 4.70052 66.3438 4.85156C66.8385 4.9974 67.2422 5.20312 67.5547 5.46875C67.8724 5.73438 68.1042 6.05208 68.25 6.42188C68.3958 6.79167 68.4688 7.19792 68.4688 7.64062C68.4688 7.97917 68.4219 8.30208 68.3281 8.60938C68.2344 8.91146 68.0964 9.1901 67.9141 9.44531C67.737 9.69531 67.5182 9.91927 67.2578 10.1172C66.9974 10.3099 66.6979 10.4661 66.3594 10.5859C66.4896 10.6589 66.612 10.7474 66.7266 10.8516C66.8411 10.9505 66.9479 11.0729 67.0469 11.2188L69.3672 15H67.5156C67.1875 15 66.9349 14.862 66.7578 14.5859L64.8672 11.3516C64.7891 11.2266 64.7005 11.138 64.6016 11.0859C64.5078 11.0339 64.3724 11.0078 64.1953 11.0078H63.5ZM63.5 9.54688H64.5469C64.8802 9.54688 65.1667 9.5026 65.4062 9.41406C65.651 9.32552 65.8516 9.20312 66.0078 9.04688C66.1641 8.89062 66.2786 8.70573 66.3516 8.49219C66.4297 8.27344 66.4688 8.03646 66.4688 7.78125C66.4688 7.27604 66.3125 6.88802 66 6.61719C65.6875 6.34115 65.2083 6.20312 64.5625 6.20312H63.5V9.54688ZM79.8281 9.80469C79.8281 10.5651 79.7083 11.2708 79.4688 11.9219C79.2292 12.5677 78.888 13.1276 78.4453 13.6016C78.0078 14.0755 77.4792 14.4453 76.8594 14.7109C76.2396 14.9766 75.5521 15.1094 74.7969 15.1094C74.0417 15.1094 73.3542 14.9766 72.7344 14.7109C72.1146 14.4453 71.5833 14.0755 71.1406 13.6016C70.6979 13.1276 70.3542 12.5677 70.1094 11.9219C69.8698 11.2708 69.75 10.5651 69.75 9.80469C69.75 9.04948 69.8698 8.34896 70.1094 7.70312C70.3542 7.05208 70.6979 6.49219 71.1406 6.02344C71.5833 5.54948 72.1146 5.17969 72.7344 4.91406C73.3542 4.64323 74.0417 4.50781 74.7969 4.50781C75.5521 4.50781 76.2396 4.64323 76.8594 4.91406C77.4792 5.17969 78.0078 5.54948 78.4453 6.02344C78.888 6.4974 79.2292 7.05729 79.4688 7.70312C79.7083 8.34896 79.8281 9.04948 79.8281 9.80469ZM77.7344 9.80469C77.7344 9.2526 77.6667 8.75781 77.5312 8.32031C77.3958 7.88281 77.2005 7.51042 76.9453 7.20312C76.6953 6.89583 76.388 6.66146 76.0234 6.5C75.6641 6.33333 75.2552 6.25 74.7969 6.25C74.3385 6.25 73.9271 6.33333 73.5625 6.5C73.1979 6.66146 72.888 6.89583 72.6328 7.20312C72.3828 7.51042 72.1901 7.88281 72.0547 8.32031C71.9193 8.75781 71.8516 9.2526 71.8516 9.80469C71.8516 10.362 71.9193 10.862 72.0547 11.3047C72.1901 11.7422 72.3828 12.1146 72.6328 12.4219C72.888 12.724 73.1979 12.9557 73.5625 13.1172C73.9271 13.2786 74.3385 13.3594 74.7969 13.3594C75.2552 13.3594 75.6641 13.2786 76.0234 13.1172C76.388 12.9557 76.6953 12.724 76.9453 12.4219C77.2005 12.1146 77.3958 11.7422 77.5312 11.3047C77.6667 10.862 77.7344 10.362 77.7344 9.80469ZM83.1562 11.3984V15H81.1016V4.625H84.4375C85.1094 4.625 85.6875 4.70833 86.1719 4.875C86.6562 5.04167 87.0573 5.27344 87.375 5.57031C87.6927 5.86198 87.9271 6.21094 88.0781 6.61719C88.2292 7.02344 88.3047 7.46875 88.3047 7.95312C88.3047 8.46354 88.224 8.92969 88.0625 9.35156C87.9062 9.77344 87.6667 10.1354 87.3438 10.4375C87.026 10.7396 86.625 10.9766 86.1406 11.1484C85.6562 11.3151 85.0885 11.3984 84.4375 11.3984H83.1562ZM83.1562 9.80469H84.4375C85.0625 9.80469 85.5208 9.64062 85.8125 9.3125C86.1042 8.97917 86.25 8.52604 86.25 7.95312C86.25 7.41667 86.1016 6.99219 85.8047 6.67969C85.5078 6.36198 85.0521 6.20312 84.4375 6.20312H83.1562V9.80469ZM95.9688 4.625V6.25781H91.7031V9H95.0234V10.5703H91.7031V13.3672H95.9766L95.9688 15H89.6406V4.625H95.9688ZM99.5156 11.0078V15H97.4531V4.625H100.578C101.271 4.625 101.865 4.70052 102.359 4.85156C102.854 4.9974 103.258 5.20312 103.57 5.46875C103.888 5.73438 104.12 6.05208 104.266 6.42188C104.411 6.79167 104.484 7.19792 104.484 7.64062C104.484 7.97917 104.438 8.30208 104.344 8.60938C104.25 8.91146 104.112 9.1901 103.93 9.44531C103.753 9.69531 103.534 9.91927 103.273 10.1172C103.013 10.3099 102.714 10.4661 102.375 10.5859C102.505 10.6589 102.628 10.7474 102.742 10.8516C102.857 10.9505 102.964 11.0729 103.062 11.2188L105.383 15H103.531C103.203 15 102.951 14.862 102.773 14.5859L100.883 11.3516C100.805 11.2266 100.716 11.138 100.617 11.0859C100.523 11.0339 100.388 11.0078 100.211 11.0078H99.5156ZM99.5156 9.54688H100.562C100.896 9.54688 101.182 9.5026 101.422 9.41406C101.667 9.32552 101.867 9.20312 102.023 9.04688C102.18 8.89062 102.294 8.70573 102.367 8.49219C102.445 8.27344 102.484 8.03646 102.484 7.78125C102.484 7.27604 102.328 6.88802 102.016 6.61719C101.703 6.34115 101.224 6.20312 100.578 6.20312H99.5156V9.54688ZM113.172 4.625V6.29688H110.375V15H108.328V6.29688H105.531V4.625H113.172ZM118.484 11V15H116.453V10.9844L113.195 4.625H115.016C115.182 4.625 115.318 4.66667 115.422 4.75C115.526 4.83333 115.612 4.94271 115.68 5.07812L116.961 8.42969C117.07 8.63802 117.167 8.83333 117.25 9.01562C117.339 9.19792 117.417 9.38021 117.484 9.5625C117.542 9.38021 117.612 9.19792 117.695 9.01562C117.779 8.83333 117.872 8.64062 117.977 8.4375L119.25 5.07812C119.307 4.96875 119.391 4.86719 119.5 4.77344C119.609 4.67448 119.75 4.625 119.922 4.625H121.742L118.484 11Z" fill="black"/>
<path d="M58.5469 30.5703C58.724 30.8984 58.8776 31.2396 59.0078 31.5938C59.0807 31.4115 59.1536 31.2344 59.2266 31.0625C59.2995 30.8854 59.3802 30.7161 59.4688 30.5547L62.6641 24.9453C62.7057 24.8672 62.7474 24.8073 62.7891 24.7656C62.8359 24.7188 62.8854 24.6875 62.9375 24.6719C62.9896 24.651 63.0495 24.638 63.1172 24.6328C63.1849 24.6276 63.263 24.625 63.3516 24.625H64.8984V35H63.0938V28.5078C63.0938 28.3672 63.0964 28.2161 63.1016 28.0547C63.112 27.888 63.125 27.7188 63.1406 27.5469L59.8672 33.3438C59.7057 33.6458 59.4688 33.7969 59.1562 33.7969H58.8672C58.5495 33.7969 58.3099 33.6458 58.1484 33.3438L54.8359 27.5156C54.8568 27.6927 54.8724 27.8672 54.8828 28.0391C54.8932 28.2057 54.8984 28.362 54.8984 28.5078V35H53.0859V24.625H54.6406C54.7292 24.625 54.8047 24.6276 54.8672 24.6328C54.9349 24.638 54.9948 24.651 55.0469 24.6719C55.1042 24.6927 55.1536 24.724 55.1953 24.7656C55.2422 24.8073 55.2865 24.8672 55.3281 24.9453L58.5469 30.5703ZM75.6719 35H74.0938C73.9115 35 73.7656 34.9583 73.6562 34.875C73.5469 34.7865 73.4661 34.6771 73.4141 34.5469L72.7578 32.5078H68.9375L68.2891 34.5391C68.2474 34.6536 68.1667 34.7604 68.0469 34.8594C67.9323 34.9531 67.7891 35 67.6172 35H66.0156L69.7969 24.625H71.8906L75.6719 35ZM69.3984 31.0703H72.2891L71.2344 27.7891C71.1719 27.6276 71.1068 27.4401 71.0391 27.2266C70.9714 27.0078 70.9036 26.7708 70.8359 26.5156C70.7734 26.7708 70.7083 27.0078 70.6406 27.2266C70.5729 27.4453 70.5104 27.6354 70.4531 27.7969L69.3984 31.0703ZM77.7188 24.625C77.8073 24.625 77.8828 24.6302 77.9453 24.6406C78.0078 24.6458 78.0625 24.6615 78.1094 24.6875C78.1615 24.7083 78.2083 24.7396 78.25 24.7812C78.2969 24.8229 78.349 24.8776 78.4062 24.9453L83.5156 31.6797C83.4844 31.3359 83.4688 31.0104 83.4688 30.7031V24.625H85.2734V35H84.2188C84.0573 35 83.9219 34.974 83.8125 34.9219C83.7083 34.8646 83.6042 34.7734 83.5 34.6484L78.4062 27.9531C78.4375 28.276 78.4531 28.5755 78.4531 28.8516V35H76.6406V24.625H77.7188ZM95.9219 35H94.3438C94.1615 35 94.0156 34.9583 93.9062 34.875C93.7969 34.7865 93.7161 34.6771 93.6641 34.5469L93.0078 32.5078H89.1875L88.5391 34.5391C88.4974 34.6536 88.4167 34.7604 88.2969 34.8594C88.1823 34.9531 88.0391 35 87.8672 35H86.2656L90.0469 24.625H92.1406L95.9219 35ZM89.6484 31.0703H92.5391L91.4844 27.7891C91.4219 27.6276 91.3568 27.4401 91.2891 27.2266C91.2214 27.0078 91.1536 26.7708 91.0859 26.5156C91.0234 26.7708 90.9583 27.0078 90.8906 27.2266C90.8229 27.4453 90.7604 27.6354 90.7031 27.7969L89.6484 31.0703ZM105.234 34C104.714 34.3906 104.159 34.6745 103.57 34.8516C102.982 35.0234 102.357 35.1094 101.695 35.1094C100.857 35.1094 100.096 34.9792 99.4141 34.7188C98.737 34.4531 98.1562 34.0859 97.6719 33.6172C97.1875 33.1432 96.8125 32.5833 96.5469 31.9375C96.2865 31.2865 96.1562 30.5755 96.1562 29.8047C96.1562 29.0286 96.2812 28.3177 96.5312 27.6719C96.7812 27.0208 97.138 26.4609 97.6016 25.9922C98.0703 25.5234 98.6328 25.1589 99.2891 24.8984C99.9505 24.638 100.688 24.5078 101.5 24.5078C101.922 24.5078 102.315 24.5417 102.68 24.6094C103.044 24.6771 103.383 24.7708 103.695 24.8906C104.008 25.0104 104.292 25.1536 104.547 25.3203C104.807 25.487 105.042 25.6719 105.25 25.875L104.664 26.7969C104.576 26.9427 104.456 27.0339 104.305 27.0703C104.159 27.1016 104 27.0651 103.828 26.9609C103.667 26.862 103.505 26.7708 103.344 26.6875C103.182 26.599 103.008 26.5234 102.82 26.4609C102.638 26.3932 102.435 26.3411 102.211 26.3047C101.987 26.2682 101.729 26.25 101.438 26.25C100.948 26.25 100.508 26.3359 100.117 26.5078C99.7266 26.6745 99.3932 26.9115 99.1172 27.2188C98.8411 27.526 98.6276 27.901 98.4766 28.3438C98.3307 28.7812 98.2578 29.2682 98.2578 29.8047C98.2578 30.388 98.3385 30.9089 98.5 31.3672C98.6615 31.8255 98.888 32.2135 99.1797 32.5312C99.4766 32.8438 99.8333 33.0833 100.25 33.25C100.667 33.4115 101.13 33.4922 101.641 33.4922C101.984 33.4922 102.292 33.4583 102.562 33.3906C102.839 33.3177 103.109 33.2188 103.375 33.0938V31.2812H102.18C102.055 31.2812 101.953 31.2448 101.875 31.1719C101.802 31.099 101.766 31.0104 101.766 30.9062V29.75H105.234V34ZM113.188 24.625V26.2578H108.922V29H112.242V30.5703H108.922V33.3672H113.195L113.188 35H106.859V24.625H113.188ZM120.297 30.5703C120.474 30.8984 120.628 31.2396 120.758 31.5938C120.831 31.4115 120.904 31.2344 120.977 31.0625C121.049 30.8854 121.13 30.7161 121.219 30.5547L124.414 24.9453C124.456 24.8672 124.497 24.8073 124.539 24.7656C124.586 24.7188 124.635 24.6875 124.688 24.6719C124.74 24.651 124.799 24.638 124.867 24.6328C124.935 24.6276 125.013 24.625 125.102 24.625H126.648V35H124.844V28.5078C124.844 28.3672 124.846 28.2161 124.852 28.0547C124.862 27.888 124.875 27.7188 124.891 27.5469L121.617 33.3438C121.456 33.6458 121.219 33.7969 120.906 33.7969H120.617C120.299 33.7969 120.06 33.6458 119.898 33.3438L116.586 27.5156C116.607 27.6927 116.622 27.8672 116.633 28.0391C116.643 28.2057 116.648 28.362 116.648 28.5078V35H114.836V24.625H116.391C116.479 24.625 116.555 24.6276 116.617 24.6328C116.685 24.638 116.745 24.651 116.797 24.6719C116.854 24.6927 116.904 24.724 116.945 24.7656C116.992 24.8073 117.036 24.8672 117.078 24.9453L120.297 30.5703ZM134.984 24.625V26.2578H130.719V29H134.039V30.5703H130.719V33.3672H134.992L134.984 35H128.656V24.625H134.984ZM137.578 24.625C137.667 24.625 137.742 24.6302 137.805 24.6406C137.867 24.6458 137.922 24.6615 137.969 24.6875C138.021 24.7083 138.068 24.7396 138.109 24.7812C138.156 24.8229 138.208 24.8776 138.266 24.9453L143.375 31.6797C143.344 31.3359 143.328 31.0104 143.328 30.7031V24.625H145.133V35H144.078C143.917 35 143.781 34.974 143.672 34.9219C143.568 34.8646 143.464 34.7734 143.359 34.6484L138.266 27.9531C138.297 28.276 138.312 28.5755 138.312 28.8516V35H136.5V24.625H137.578ZM153.875 24.625V26.2969H151.078V35H149.031V26.2969H146.234V24.625H153.875Z" fill="black"/>
<mask id="mask0_1835_1990" style="mask-type:alpha" maskUnits="userSpaceOnUse" x="0" y="0" width="40" height="40">
<circle cx="20" cy="20" r="20" fill="#097EDF"/>
</mask>
<g mask="url(#mask0_1835_1990)">
<path d="M21.0002 28.6667V41H31.0002V28.6667C31.0002 27.7332 31.0002 27.2665 30.8185 26.91C30.6587 26.5964 30.4038 26.3414 30.0902 26.1817C29.7336 26 29.2669 26 28.3335 26H23.6668C22.7334 26 22.2667 26 21.9102 26.1817C21.5966 26.3414 21.3416 26.5964 21.1818 26.91C21.0002 27.2665 21.0002 27.7332 21.0002 28.6667Z" fill="black"/>
<path d="M21.0002 41V28.6667C21.0002 27.7332 21.0002 27.2665 21.1818 26.91C21.3416 26.5964 21.5966 26.3414 21.9102 26.1817C22.2667 26 22.7334 26 23.6668 26H28.3335C29.2669 26 29.7336 26 30.0902 26.1817C30.4038 26.3414 30.6587 26.5964 30.8185 26.91C31.0002 27.2665 31.0002 27.7332 31.0002 28.6667V41M21.0002 41H31.0002M21.0002 41H18.0002M31.0002 41H34.0002M18.0002 41H34.0002M18.0002 41C16.1333 41 15.1999 41 14.4869 40.6367C13.8597 40.3171 13.3497 39.8072 13.0301 39.18C12.6668 38.4669 12.6668 37.5335 12.6668 35.6667V19.3333L22.8002 11.7333C23.9477 10.8727 24.5215 10.4424 25.1516 10.2765C25.7078 10.1301 26.2925 10.1301 26.8487 10.2765C27.4789 10.4424 28.0526 10.8727 29.2002 11.7333L39.3335 19.3333V35.6667C39.3335 37.5335 39.3335 38.4669 38.9702 39.18C38.6506 39.8072 38.1407 40.3171 37.5135 40.6367C36.8004 41 35.867 41 34.0002 41M9.3335 21.8333L24.4002 10.5333C24.9739 10.103 25.2608 9.88785 25.5759 9.80491C25.854 9.7317 26.1463 9.7317 26.4244 9.80491C26.7395 9.88785 27.0264 10.103 27.6002 10.5333L42.6668 21.8333" stroke="black" stroke-width="2" stroke-linecap="round" stroke-linejoin="round"/>
</g>
<circle cx="20" cy="20" r="19" stroke="black" stroke-width="2"/>
</g>
<defs>
<clipPath id="clip0_1835_1990">
<rect width="155" height="40" fill="white"/>
</clipPath>
</defs>
</svg>
